<svg xmlns="http://www.w3.org/2000/svg" width="40" height="40" viewBox="0 0 24 24" fill="none" stroke="#059669" strokeWidth="0">
  <g fill="#059669">
    <path d="M7 3C6.44772 3 6 3.44772 6 4V5H5C4.44772 5 4 5.44772 4 6C4 6.55228 4.44772 7 5 7H6V18C6 19.6569 7.34315 21 9 21H15C16.6569 21 18 19.6569 18 18V7H19C19.5523 7 20 6.55228 20 6C20 5.44772 19.5523 5 19 5H18V4C18 3.44772 17.5523 3 17 3H7Z" />
    <path d="M8 7H16V18C16 18.5523 15.5523 19 15 19H9C8.44772 19 8 18.5523 8 18V7Z" fill="white" />
    <path d="M9 8.5H15V16.5H9V8.5Z" fill="#059669" opacity="0.2" />
    <path d="M12 3H16V5H12V3Z" />
  </g>
</svg>

